<svg xmlns="http://www.w3.org/2000/svg" viewBox="0 0 32 48" fill="none" stroke="#000" stroke-width="1" stroke-linecap="round" stroke-linejoin="round"><circle cx="16" cy="1.6" r="0.6" fill="#000"/><line x1="16" y1="2.4" x2="16" y2="5"/><path d="M16 5 L14 10 L18 10 Z"/><path d="M14 10 L13 22 L19 22 L18 10"/><line x1="16" y1="10" x2="16" y2="22"/><line x1="13" y1="14" x2="19" y2="14"/><line x1="13" y1="18" x2="19" y2="18"/><line x1="13" y1="22" x2="19" y2="22" stroke-width="1.5"/><line x1="13" y1="23" x2="19" y2="23"/><path d="M13 23 L11 35 L21 35 L19 23"/><line x1="14" y1="23" x2="13.3" y2="35"/><line x1="18" y1="23" x2="18.7" y2="35"/><line x1="16" y1="23" x2="16" y2="35"/><line x1="12.5" y1="29" x2="19.5" y2="29"/><line x1="12" y1="32" x2="20" y2="32"/><line x1="11" y1="35" x2="21" y2="35" stroke-width="1.5"/><line x1="11" y1="36" x2="21" y2="36"/><line x1="11" y1="36" x2="6" y2="46"/><line x1="21" y1="36" x2="26" y2="46"/><line x1="14" y1="36" x2="11" y2="46"/><line x1="18" y1="36" x2="21" y2="46"/><path d="M11 36 Q 16 44 21 36"/><path d="M11 36 Q 12 41 14 36"/><path d="M18 36 Q 20 41 21 36"/><line x1="3" y1="46" x2="29" y2="46" stroke-width="1.3"/></svg>
